<svg viewBox="0 0 375.02378249153736 65.08456832596555" xmlns="http://www.w3.org/2000/svg">

  <style>
    @import url("https://fonts.googleapis.com/css?family=Handlee");
  </style>


  <defs>
    <linearGradient id="SvgjsLinearGradient2555">
      <stop id="SvgjsStop2556" stop-color="#2d388a" offset="0" />
      <stop id="SvgjsStop2557" stop-color="#00aeef" offset="1" />
    </linearGradient>
    <linearGradient id="SvgjsLinearGradient2558">
      <stop id="SvgjsStop2559" stop-color="#2d388a" offset="0" />
      <stop id="SvgjsStop2560" stop-color="#00aeef" offset="1" />
    </linearGradient>
  </defs>
  <g id="SvgjsG2551" featurekey="nRdZyp-0"
    transform="matrix(0.7223238348960876, 0, 0, 0.7223238348960876, -6.128196239471436, -4.201455116271973)"
    fill="#FFFFFF">
    <g xmlns="http://www.w3.org/2000/svg">
      <g>
        <path fill-rule="evenodd" clip-rule="evenodd"
          d="M 77.074 48.41 C 78 45.95 83.565 36.168 83.565 37.171 C 86.113 35.846 76.702 56.208 70.777 63.983 C 71.171 64.463 71.637 65.397 71.502 65.549 C 71.325 66.438 71.136 67.385 70.943 68.354 C 70.239 68.061 69.535 67.77 68.784 67.458 C 67.5 69.528 63.847 72.437 63.723 72.169 C 63.628 72.05 63.48 71.864 63.217 71.534 C 64.619 69.907 65.999 68.304 67.44 66.632 C 66.796 66.208 66.187 65.806 65.512 65.362 C 63.872 67.333 62.221 69.317 60.51 71.372 C 60.232 70.989 57.527 60.374 56.427 56.284 C 56.164 56.243 55.883 56.198 55.542 56.145 C 55.425 57.893 54.444 71.315 52.818 76.028 C 51.246 80.589 46.892 93.147 46.232 94.844 C 46.181 94.975 45.953 95.155 45.861 95.127 C 45.686 95.076 51.853 76.647 52.868 73.246 C 54.115 69.074 54.415 54.439 54.415 51.517 C 49.647 50.777 33.869 47.699 32.685 47.311 C 34.172 62.823 30.793 76.946 21.378 89.341 C 23.947 90.318 44.4 95.505 45.005 95.564 C 45.189 95.584 45.36 95.738 45.699 95.916 C 45.318 96.115 20.855 90.299 20.451 90.217 C 20.602 89.897 25.737 80.873 28.204 76.469 C 26.393 75.625 22.808 75.965 25.562 72.824 C 22.793 71.246 16.326 67.492 16.02 67.047 C 15.875 66.834 16.134 66.289 16.302 65.94 C 16.411 65.713 26.742 54.387 28.572 51.901 C 29.601 50.503 31.874 47.31 31.875 47.132 C 31.877 45.84 32.353 46.159 33.282 46.472 C 35.644 47.266 53.308 50.186 53.929 50.246 C 54.373 50.423 56.021 50.823 56.188 51.488 C 57.258 55.767 58.223 60.072 59.317 64.343 C 59.745 66.013 60.415 67.62 61.024 69.402 C 63.059 67.006 65.053 64.658 67.275 62.041 C 67.883 62.365 68.76 62.832 69.658 63.311 C 71.824 58.957 73.984 54.618 77.074 48.41 Z M 26.373 71.379 C 26.803 70.432 27.188 69.498 27.657 68.611 C 27.756 68.423 28.27 68.24 28.406 68.332 C 28.861 68.637 29.253 69.047 29.62 69.461 C 29.775 69.635 29.808 69.918 30.004 70.436 C 29.171 69.997 28.661 69.727 28.157 69.461 C 27.256 71.209 26.389 72.893 25.466 74.684 C 26.193 74.952 28.221 75.368 28.335 75.532 C 32.367 66.886 31.916 57.696 32.073 48.546 C 27.822 55.185 23.025 61.296 16.812 66.552 M 67.346 63.125 C 67.028 63.814 66.725 64.473 66.406 65.166 C 67.001 65.506 67.448 65.762 67.929 66.037 C 68.342 65.441 68.762 64.838 69.222 64.178 C 68.611 63.834 68.061 63.525 67.346 63.125 Z M 55.523 55.586 C 55.779 55.471 56 55.372 56.293 55.24 C 56.027 54.201 55.758 53.148 55.489 52.095 C 55.426 52.111 55.363 52.127 55.301 52.144 C 55.293 51.984 55.286 51.826 55.28 51.665 C 55.232 51.67 55.184 51.674 55.135 51.679 C 55.265 52.984 55.395 54.289 55.523 55.586 Z M 70.619 65.064 C 70.542 65.046 70.465 65.031 70.387 65.015 C 70.033 65.544 69.679 66.072 69.269 66.687 C 69.639 66.873 69.946 67.027 70.338 67.224 C 70.446 66.396 70.533 65.73 70.619 65.064 Z" />
        <path fill-rule="evenodd" clip-rule="evenodd"
          d="M76.325,56.057c4.85-0.324,9.698-0.648,14.299-0.957    c0.127-2.701-0.073-47.583-0.196-48.459C63.611,7.778,36.693,6.266,9.803,8.002c2.6,14.691,5.145,29.075,7.743,43.753    c-0.131-0.108,5.744,0.579,8.502,0.727c0.329,0.018,0.642,0.329,0.962,0.504c-0.042,0.15-7.14,0.105-8.723-0.043    c-1.446-0.135-1.828-1.102-1.961-2.348c-0.302-2.818-7.732-43.17-7.842-43.468c5.912-0.225,82.519-1.898,82.707-1.093    c0.045,0.085,0.555,48.817,0.201,49.139c-0.573,0.522-1.541,0.76-2.368,0.83c-3.161,0.273-12.499,0.473-12.741,0.363    C76.297,56.264,76.311,56.16,76.325,56.057z" />
        <path fill-rule="evenodd" clip-rule="evenodd"
          d="M33.469,43.336c-0.152-0.175-10.051-20.188-10.051-20.575    c5.206-2.015,25.665-10.346,26.387-10.471c0.385-0.066,0.847,0.317,1.674,0.667c-0.693,0.154-5.916,2.042-7.173,2.5    c0.294,1.655,0.52,3.23,0.86,4.78c0.667,3.032,1.386,6.052,2.104,9.072c0.545,2.292,1.127,4.576,1.677,6.868    c0.095,0.398,0.155,0.818,0.143,1.225c-0.008,0.213-0.16,0.541-0.332,0.612C46.626,38.901,34.046,43.146,33.469,43.336z     M43.482,15.847c-6.343,2.51-12.542,4.963-18.83,7.452c3.107,6.378,5.34,13.089,8.948,19.052    c0.389-0.196,11.658-3.956,14.99-5.377C47.655,33.534,44.175,19.542,43.482,15.847z" />
        <path fill-rule="evenodd" clip-rule="evenodd"
          d="M57.576,56.217c0.196-0.328,0.276-0.461,0.29-0.482    c5,0,9.913-0.002,14.825,0.015c0.078,0,0.154,0.218,0.249,0.36C66.875,56.469,59.108,56.295,57.576,56.217z" />
        <path fill-rule="evenodd" clip-rule="evenodd" fill="#FFFFFF"
          d="M55.523,55.586c-0.129-1.297-0.259-2.602-0.389-3.906    c0.049-0.005,0.097-0.009,0.145-0.014c0.007,0.16,0.014,0.318,0.021,0.479c0.062-0.017,0.125-0.033,0.188-0.049    c0.269,1.053,0.538,2.105,0.804,3.145C56,55.372,55.779,55.471,55.523,55.586z" />
        <path fill-rule="evenodd" clip-rule="evenodd"
          d="M32.072,53.023c-0.305,0.415-0.368,0.501-0.458,0.623    c-0.638,0.049-1.294,0.098-2.064,0.156c-0.078-0.234-0.206-0.467-0.208-0.7c0-0.085,0.302-0.251,0.462-0.245    C30.491,52.881,31.176,52.953,32.072,53.023z" />
      </g>
    </g>
  </g>
  <g id="SvgjsG2552" featurekey="Q4qmbg-0"
    transform="matrix(2.7036640644073486, 0, 0, 2.7036640644073486, 83.2696533203125, -7.842759609222412)"
    fill="#FFFFFF">
    <path
      d="M7.7 10.12 l2.96 0 l0 9.58 c0 2.92 -2.14 5.28 -5.22 5.28 c-1.7 0 -2.98 -0.78 -4.1 -2.02 l2.1 -1.9 c0.62 0.92 1.18 1.48 2 1.48 c1.4 0 2.24 -1.54 2.24 -3.22 c-0.36 0.48 -1.42 0.82 -2.04 0.82 c-2.88 0 -5 -2.16 -5 -5.08 s2.12 -5.1 5 -5.1 c0.68 0 1.74 0.36 2.06 0.82 l0 -0.66 z M5.84 17.92 c1.34 0 2.26 -1.54 2.26 -2.86 c0 -1.34 -0.9 -2.86 -2.26 -2.86 c-1.22 0 -2.24 1.28 -2.24 2.86 c0 1.56 1.02 2.86 2.24 2.86 z M15.243895833333331 5.119999999999999 l0 14.88 l-2.98 0 l0 -14.88 l2.98 0 z M29.011687499999997 10.26 l-0.4 2.22 c-0.74 -0.32 -0.88 -0.26 -1.22 -0.26 c-1.2 0 -1.9 0.64 -1.9 2.22 l0 5.56 l-2.96 0 l0 -9.88 l2.96 0 l0 0.88 c0.38 -0.68 1.42 -1.02 2.08 -1.02 c0.62 0 0.98 0.02 1.44 0.28 z M32.37558333333333 10.12 l0 9.88 l-2.96 0 l0 -9.88 l2.96 0 z M32.45558333333333 7.279999999999999 c0 0.84 -0.68 1.5 -1.58 1.5 c-0.86 0 -1.56 -0.66 -1.56 -1.5 c0 -0.82 0.7 -1.46 1.56 -1.46 c0.9 0 1.58 0.64 1.58 1.46 z M44.21947916666666 15.08 c0 2.92 -1.94 5.08 -4.84 5.08 c-0.6 0 -1.78 -0.36 -2.24 -0.82 l0 5.3 l-2.96 0 l0 -14.52 l2.96 0 l0 0.7 c0.42 -0.5 1.18 -0.84 2.04 -0.84 c2.9 0 5.04 2.18 5.04 5.1 z M41.23947916666666 15.08 c0 -1.58 -1.02 -2.86 -2.26 -2.86 c-0.76 0 -1.5 0.56 -1.9 1.36 c-0.18 0.4 -0.32 0.96 -0.32 1.5 c0 0.56 0.12 1.06 0.32 1.48 c0.42 0.82 1.12 1.36 1.9 1.36 c1.24 0 2.26 -1.28 2.26 -2.84 z M55.343374999999995 15.08 l0 0.66 l-7.04 0 c0 1.16 1.18 1.98 2.16 1.98 c0.96 0 1.84 -0.38 2.3 -1.22 l1.98 1.82 c-0.8 1.08 -2.02 1.84 -4.28 1.84 c-3.24 0 -5.22 -2.16 -5.22 -5.08 s1.92 -5.1 5.04 -5.1 s5.06 2.14 5.06 5.1 z M48.36337499999999 13.86 l3.88 0 c-0.16 -0.94 -0.84 -1.44 -1.96 -1.44 c-1.08 0 -1.74 0.58 -1.92 1.44 z M60.067270833333325 15.8 c0 0.72 -0.02 1.92 1.08 1.92 c0.54 0 0.88 -0.22 1.26 -0.5 l0 2.44 c-0.46 0.26 -1.02 0.5 -1.62 0.5 c-2.54 0 -3.68 -1.08 -3.68 -4.36 l0 -3.24 l-1.1 0 l0 -2.44 l1.1 0 l0 -2.84 l2.96 0 l0 2.84 l2.34 0 l0 2.44 l-2.34 0 l0 3.24 z M67.21116666666666 10.12 l0 9.88 l-2.96 0 l0 -9.88 l2.96 0 z M67.29116666666665 7.279999999999999 c0 0.84 -0.68 1.5 -1.58 1.5 c-0.86 0 -1.56 -0.66 -1.56 -1.5 c0 -0.82 0.7 -1.46 1.56 -1.46 c0.9 0 1.58 0.64 1.58 1.46 z M76.33506249999999 10.12 l0 2.18 l-4.06 5.26 l4.06 0 l0 2.44 l-7.52 0 l0 -2.28 l4.04 -5.16 l-4.04 0 l0 -2.44 l7.52 0 z M81.27895833333332 10.12 l0 9.88 l-2.96 0 l0 -9.88 l2.96 0 z M81.35895833333332 7.279999999999999 c0 0.84 -0.68 1.5 -1.58 1.5 c-0.86 0 -1.56 -0.66 -1.56 -1.5 c0 -0.82 0.7 -1.46 1.56 -1.46 c0.9 0 1.58 0.64 1.58 1.46 z M87.66285416666665 12.42 c-1.22 0 -2.24 1.08 -2.24 2.66 c0 1.56 1.02 2.64 2.24 2.64 c1.24 0 2.26 -1.08 2.26 -2.64 c0 -1.58 -1.02 -2.66 -2.26 -2.66 z M87.66285416666665 9.98 c2.9 0 5.22 2.18 5.22 5.1 s-2.32 5.08 -5.22 5.08 c-2.88 0 -5.2 -2.16 -5.2 -5.08 s2.32 -5.1 5.2 -5.1 z M103.32674999999998 14.36 l0 5.64 l-2.96 0 l0 -5.64 c0 -1.5 -0.4 -2.16 -1.56 -2.16 c-1.2 0 -1.9 0.66 -1.9 2.16 l0 5.64 l-2.96 0 l0 -9.88 l2.96 0 l0 0.94 c0.76 -0.74 1.8 -1.08 2.66 -1.08 c2.78 0 3.76 1.34 3.76 4.38 z M107.83064583333332 10.12 l0 9.88 l-2.96 0 l0 -9.88 l2.96 0 z M107.91064583333332 7.279999999999999 c0 0.84 -0.68 1.5 -1.58 1.5 c-0.86 0 -1.56 -0.66 -1.56 -1.5 c0 -0.82 0.7 -1.46 1.56 -1.46 c0.9 0 1.58 0.64 1.58 1.46 z" />
  </g>

  <text
    style="fill: #FFFFFF; font-family: Handlee, sans-serif; font-size: 7.8px; font-weight: 700; text-transform: capitalize; white-space: pre;"
    transform="matrix(1, 0, 0, 1, 3.118268966674803, -4.781344890594482)">
    <tspan x="32.144" y="16.373">Facile</tspan>
    <tspan x="30.144" dy="1em">​</tspan>
    <tspan> no?</tspan>
  </text>
</svg>