<svg viewBox="0 0 66 66" xmlns="http://www.w3.org/2000/svg">
  <defs></defs>
  <g id="SvgjsG2551" featurekey="nRdZyp-0" transform="matrix(0.7223238348960876, 0, 0, 0.7223238348960876, -6.128196239471436, -4.201455116271973)" fill="#ffffff">
    <g xmlns="http://www.w3.org/2000/svg">
      <g>
        <path fill-rule="evenodd" clip-rule="evenodd" d="M 77.841 49.023 C 79.227 46.563 83.565 36.168 83.565 37.171 C 86.113 35.846 76.702 56.208 70.777 63.983 C 71.171 64.463 71.637 65.397 71.502 65.549 C 71.325 66.438 71.136 67.385 70.943 68.354 C 70.239 68.061 69.535 67.77 68.784 67.458 C 67.5 69.528 63.847 72.437 63.723 72.169 C 63.628 72.05 63.48 71.864 63.217 71.534 C 64.619 69.907 65.999 68.304 67.44 66.632 C 66.796 66.208 66.187 65.806 65.512 65.362 C 63.872 67.333 62.221 69.317 60.51 71.372 C 60.232 70.989 57.527 60.374 56.427 56.284 C 56.164 56.243 55.883 56.198 55.542 56.145 C 55.425 57.893 54.444 71.315 52.818 76.028 C 51.246 80.589 46.892 93.147 46.232 94.844 C 46.181 94.975 45.952 95.157 45.861 95.127 C 44.637 94.726 51.898 76.297 52.408 72.786 C 53.012 68.63 54.383 54.439 54.415 51.517 C 49.647 50.777 33.869 47.699 32.685 47.311 C 34.583 62.823 32.293 76.946 21.378 89.341 C 23.947 90.318 44.553 95.044 45.158 95.103 C 45.342 95.123 45.36 95.738 45.699 95.916 C 45.318 96.115 20.855 90.299 20.451 90.217 C 20.602 89.897 25.737 80.873 28.204 76.469 C 26.393 75.625 22.808 75.965 25.562 72.824 C 22.793 71.246 16.326 67.492 16.02 67.047 C 15.875 66.834 16.134 66.289 16.302 65.94 C 16.411 65.713 26.742 54.387 28.572 51.901 C 29.601 50.503 31.874 47.31 31.875 47.132 C 31.877 45.84 32.303 46.42 33.282 46.472 C 36.85 46.663 53.626 50.027 53.929 50.246 C 54.373 50.423 56.021 50.823 56.188 51.488 C 57.258 55.767 58.223 60.072 59.317 64.343 C 59.745 66.013 60.415 67.62 61.024 69.402 C 63.059 67.006 65.053 64.658 67.275 62.041 C 67.883 62.365 68.76 62.832 69.658 63.311 C 72.284 59.11 75.058 55.231 77.841 49.023 Z M 26.373 71.379 C 26.803 70.432 27.188 69.498 27.657 68.611 C 27.756 68.423 28.27 68.24 28.406 68.332 C 28.861 68.637 29.253 69.047 29.62 69.461 C 29.775 69.635 29.808 69.918 30.004 70.436 C 29.171 69.997 28.661 70.034 28.157 69.768 C 27.256 71.516 26.389 72.893 25.466 74.684 C 26.193 74.952 28.221 75.368 28.335 75.532 C 32.367 66.886 31.916 57.696 32.073 48.546 C 27.822 55.185 23.025 61.296 16.812 66.552 M 67.346 63.125 C 67.028 63.814 66.725 64.473 66.406 65.166 C 67.001 65.506 67.448 65.762 67.929 66.037 C 68.342 65.441 68.762 64.838 69.222 64.178 C 68.611 63.834 68.061 63.525 67.346 63.125 Z M 55.523 55.586 C 55.779 55.471 56 55.372 56.293 55.24 C 56.027 54.201 55.758 53.148 55.489 52.095 C 55.426 52.111 55.363 52.127 55.301 52.144 C 55.293 51.984 55.286 51.826 55.28 51.665 C 55.232 51.67 55.184 51.674 55.135 51.679 C 55.265 52.984 55.395 54.289 55.523 55.586 Z M 70.619 65.064 C 70.542 65.046 70.465 65.031 70.387 65.015 C 70.033 65.544 69.679 66.072 69.269 66.687 C 69.639 66.873 69.946 67.027 70.338 67.224 C 70.446 66.396 70.533 65.73 70.619 65.064 Z"></path>
        <path fill-rule="evenodd" clip-rule="evenodd" d="M 76.325 55.75 C 81.175 55.426 86.023 55.409 90.624 55.1 C 90.751 52.399 90.551 7.517 90.428 6.641 C 63.611 7.011 58.948 6.879 31.905 7.848 C 32.51 22.079 31.501 19.456 31.368 18.21 C 31.066 15.392 31.156 7.425 31.046 7.127 C 36.958 6.902 91.003 5.229 91.191 6.034 C 91.236 6.119 91.746 54.851 91.392 55.173 C 90.819 55.695 89.851 55.933 89.024 56.003 C 85.863 56.276 76.525 56.476 76.283 56.366 C 76.297 56.264 76.311 55.853 76.325 55.75 Z"></path>
        <path fill-rule="evenodd" clip-rule="evenodd" d="M 32.395 43.336 C 32.243 43.161 23.418 23.148 23.418 22.761 C 28.624 20.746 44.479 9.499 45.201 9.374 C 45.586 9.308 49.424 9.23 50.251 9.58 C 49.558 9.734 45.563 14.999 44.306 15.457 C 44.6 17.112 44.826 18.687 45.166 20.237 C 45.833 23.269 46.552 26.289 47.27 29.309 C 47.815 31.601 48.397 33.885 48.947 36.177 C 49.042 36.575 49.102 36.995 49.09 37.402 C 49.082 37.615 48.93 37.943 48.758 38.014 C 46.626 38.901 32.972 43.146 32.395 43.336 Z M 43.482 15.847 C 37.139 18.357 34.777 22.038 28.489 24.527 C 31.596 30.905 29.992 36.388 33.6 42.351 C 33.989 42.155 45.258 38.395 48.59 36.974 C 47.952 34.626 46.128 27.363 44.814 21.813 C 44.203 19.231 43.702 17.02 43.482 15.847 Z"></path>
        <path fill-rule="evenodd" clip-rule="evenodd" d="M 57.576 56.217 C 57.772 55.889 57.852 55.756 57.866 55.735 C 62.866 55.735 69.314 55.426 74.226 55.443 C 74.304 55.443 73.766 56.121 73.861 56.263 C 67.796 56.622 59.108 56.295 57.576 56.217 Z"></path>
        <path fill-rule="evenodd" clip-rule="evenodd" fill="#FFFFFF" d="M55.523,55.586c-0.129-1.297-0.259-2.602-0.389-3.906    c0.049-0.005,0.097-0.009,0.145-0.014c0.007,0.16,0.014,0.318,0.021,0.479c0.062-0.017,0.125-0.033,0.188-0.049    c0.269,1.053,0.538,2.105,0.804,3.145C56,55.372,55.779,55.471,55.523,55.586z"></path>
        <path style="fill: #ffffff; stroke-width: 0.69221px;" d="M 33.501 42.568 L 33.501 44.793 L 33.501 47.018"></path>
        <g id="SvgjsG2552" featurekey="Q4qmbg-0" fill="#ffffff" transform="matrix(1.5, 0, 0, 1.5, 60, 5)">
          <path d="M 7.7 10.12 L 10.66 10.12 L 10.66 19.7 C 10.66 22.62 8.52 24.98 5.44 24.98 C 3.74 24.98 2.46 24.2 1.34 22.96 L 3.44 21.06 C 4.06 21.98 4.62 22.54 5.44 22.54 C 6.84 22.54 7.68 21 7.68 19.32 C 7.32 19.8 6.26 20.14 5.64 20.14 C 2.76 20.14 0.64 17.98 0.64 15.06 C 0.64 12.14 2.76 9.96 5.64 9.96 C 6.32 9.96 7.38 10.32 7.7 10.78 L 7.7 10.12 Z M 5.84 17.92 C 7.18 17.92 8.1 16.38 8.1 15.06 C 8.1 13.72 7.2 12.2 5.84 12.2 C 4.62 12.2 3.6 13.48 3.6 15.06 C 3.6 16.62 4.62 17.92 5.84 17.92 Z M 15.244 5.12 L 15.244 20 L 12.264 20 L 12.264 5.12 L 15.244 5.12 Z" style="stroke-width: 1.47947px;"></path>
        </g>
      </g>
    </g>
  </g>
</svg>